<svg width="6510" height="2081" viewBox="0 0 6510 2081" fill="none" xmlns="http://www.w3.org/2000/svg">
<path opacity="0.47" d="M6362.35 895.083H5930.74C5940 886.671 5962.93 861.434 5969.66 843.768C5993 782.99 5987.53 752.705 5985.01 708.121C5977.44 573.104 5957.25 507.278 5869.96 451.126C5869.96 451.126 5782.67 413.902 5692.02 345.342C5642.59 307.908 5633.96 257.014 5631.65 237.665C5626.6 193.711 5641.33 178.359 5662.78 175.625C5712.63 169.316 5715.99 222.313 5716.84 250.284L5959.35 249.022C5958.3 220.841 6007.09 -56.553 5536.58 27.5696C5506.5 33.0375 5429.94 77.6222 5408.91 118.001C5380.72 171.629 5377.78 230.935 5377.78 276.993C5377.78 333.986 5398.18 389.086 5427.63 427.782C5457.08 466.479 5490.52 489.612 5533.64 520.107C5533.64 520.107 5687.81 603.809 5708.21 632.2C5733.24 667.532 5735.34 672.999 5736.4 712.116C5737.87 774.157 5722.09 795.819 5666.15 788.037C5622.82 773.947 5635.86 722.632 5631.02 678.888L5391.45 677.416C5392.71 742.401 5389.14 823.789 5417.95 861.224C5427.21 873.421 5437.93 884.147 5449.71 893.821H5311.95L5316.78 11.7966H5033.47L5029.05 890.666H4847.11L4967.63 11.7966H4670.85L4627.52 667.952L4562.74 11.7966H4260.07L4430.02 898.658H4334.53L4207.7 11.7966H3801.34L3689.02 898.448H3617.3V766.165L3466.28 764.904L3467.75 12.0065H3188.01L3186.54 887.722H3051.29C3104.3 851.339 3119.65 777.312 3119.65 700.55L3113.97 620.633L2842.01 617.479L2847.69 689.193C2847.69 709.383 2843.06 725.786 2834.23 738.405C2825.19 751.023 2809.62 757.332 2787.75 757.332C2768.19 757.332 2771.76 757.963 2761.24 747.658C2750.73 737.353 2745.47 719.898 2745.47 694.871V284.564C2745.47 264.374 2749.68 248.181 2757.88 236.193C2766.08 223.995 2773.65 212.639 2797.63 212.639C2818.24 212.639 2833.18 217.266 2843.06 226.73C2852.74 236.193 2857.79 254.28 2857.79 281.199V348.076H3113.97V233.039C3109.55 156.487 3091.68 121.576 3064.33 90.4509C3036.99 59.1153 2951.59 -1.24236 2794.06 0.0194783C2682.16 0.860704 2605.18 29.0417 2555.75 75.5194C2506.11 121.997 2481.5 188.874 2481.5 276.362V692.348C2481.5 758.594 2495.38 834.304 2540.19 878.258H1111.4L1101.51 482.041C1101.51 219.158 888.444 6.1179 625.529 6.1179H475.982C213.067 6.1179 0 219.158 0 482.041V1605.08C0 1867.96 213.067 2081 475.982 2081H625.529C888.444 2081 1101.51 1867.96 1101.51 1605.08V1221.27H6334.79C6426.08 1221.27 6510 1152.29 6510 1061.22V1054.92C6510 963.642 6443.96 902.443 6362.77 895.924L6362.35 895.083ZM873.721 1327.89C873.721 1506.86 728.591 1651.98 549.598 1651.98C370.606 1651.98 225.476 1506.86 225.476 1327.89C225.476 1216.43 281.845 1118.01 367.661 1059.75C281.845 1001.5 225.476 903.075 225.476 791.612C225.476 612.641 370.606 467.53 549.598 467.53C728.591 467.53 873.721 612.641 873.721 791.612C873.721 903.075 817.352 1001.5 731.536 1059.75C817.352 1118.01 873.721 1216.43 873.721 1327.89ZM4008.73 245.236H4019.66L4077.5 618.951H3960.56L4008.73 245.236ZM3944.79 755.019L4093.28 763.431L4090.33 901.182L3932.38 889.615L3944.79 754.809V755.019Z" fill="#4d131a"/>
</svg>
