<svg width="6555" height="2127" viewBox="0 0 6555 2127" fill="none" xmlns="http://www.w3.org/2000/svg">
<path opacity="0.47" d="M572.514 502.03C399.9 502.03 259.942 641.993 259.941 814.612C259.941 922.106 314.282 1017.03 397.064 1073.24L411.078 1082.75L397.064 1092.27C314.282 1148.47 259.941 1243.4 259.941 1350.89C259.941 1523.51 399.9 1663.47 572.514 1663.47C745.128 1663.47 885.087 1523.51 885.087 1350.89C885.087 1243.4 830.747 1148.47 747.964 1092.27L733.951 1082.75L747.964 1073.24C830.747 1017.03 885.087 922.106 885.087 814.612C885.087 641.993 745.127 502.03 572.514 502.03ZM3967.3 902.002L4101.47 911.828L4103.92 797.284L3977.59 790.128L3967.3 902.002ZM3996.03 630.241H4086.46L4037.12 311.379L3996.03 630.241ZM3147.99 382.577H2868.85V304.199C2868.85 277.888 2863.75 264.014 2857.62 257.986C2850.74 251.433 2839.27 247.14 2820.2 247.14C2810.2 247.14 2804.83 249.449 2801.24 252.097C2797.2 255.082 2794.29 259.225 2790 265.61L2789.97 265.649L2789.95 265.688C2783.46 275.174 2779.55 288.86 2779.55 307.564V717.871C2779.55 741.807 2784.67 755.387 2791.87 762.445L2792.88 763.445C2793.85 764.409 2794.68 765.263 2795.4 765.996C2796.4 767.02 2797.05 767.682 2797.61 768.218C2797.8 768.404 2797.96 768.545 2798.07 768.65C2798.4 768.69 2798.96 768.744 2799.86 768.779C2802.14 768.869 2805.17 768.832 2810.32 768.832C2830.1 768.832 2841.33 763.201 2847.42 754.747C2854.5 744.598 2858.69 730.818 2858.75 712.617L2853.11 641.387L2852.12 628.834L2864.71 628.979L3136.63 632.134L3147.21 632.257L3147.96 642.818L3153.64 722.735L3153.67 723.143V723.55C3153.67 788.803 3142.8 855.933 3104.12 899.223H3197.57L3199.02 34.9873L3199.04 23.5068H3501.74L3501.72 35.0293L3500.27 776.499L3639.84 777.666L3651.24 777.762V909.948H3701.32L3812.35 33.3525L3813.62 23.2969H4240.03L4241.44 33.1689L4366.84 910.158H4438.43L4271.12 36.9609L4268.51 23.2969H4595.46L4596.49 33.668L4647.54 550.848L4681.66 34.04L4682.37 23.2969H5003.05L5001.26 36.3594L4882.55 902.167H5039.83L5044.19 34.7393L5044.25 23.2969H5350.53L5350.47 34.8604L5345.69 905.321H5442.84C5438.7 900.848 5434.75 896.162 5431.01 891.237C5414.4 869.659 5407.96 836.934 5405.08 803.642C5402.17 769.983 5402.75 732.539 5402.13 700.64L5401.9 688.844L5413.69 688.917L5653.23 690.389L5663.46 690.452L5664.58 700.625C5665.87 712.234 5665.96 724.25 5666.09 735.277C5666.23 746.577 5666.41 756.815 5667.68 766.015C5668.94 775.187 5671.17 782.382 5674.78 787.845C5678.09 792.842 5682.96 797.018 5690.91 799.789C5717.34 803.314 5729.69 799.149 5736.3 791.656C5743.82 783.126 5747.75 766.468 5747.02 735.426L5746.92 731.846C5746.38 714.526 5745.48 705.76 5742.58 697.583C5739.42 688.684 5733.66 679.791 5720.98 661.884C5719.36 659.647 5715.74 656.04 5709.73 651.162C5703.9 646.43 5696.49 641.028 5687.97 635.202C5670.93 623.559 5649.99 610.574 5629.53 598.387C5609.09 586.216 5589.28 574.918 5574.56 566.657C5567.21 562.529 5561.13 559.164 5556.9 556.832C5554.78 555.666 5553.13 554.759 5552 554.145C5551.44 553.837 5551.01 553.603 5550.73 553.446C5550.58 553.368 5550.48 553.31 5550.4 553.271C5550.37 553.251 5550.34 553.236 5550.32 553.227C5550.31 553.222 5550.31 553.218 5550.3 553.216C5550.3 553.215 5550.3 553.214 5550.3 553.214L5555.79 543.107L5550.3 553.213L5549.7 552.889L5549.14 552.496C5506.28 522.179 5471.33 498.082 5440.64 457.746C5409.71 417.094 5388.45 359.559 5388.45 299.993C5388.45 253.689 5391.32 191.932 5420.9 135.652C5432.84 112.756 5459.32 90.1922 5485.17 73.1016C5511.06 55.9807 5539.3 42.415 5556.67 39.2559L5556.71 39.25C5793.4 -3.0742 5904.61 44.6447 5955.31 112.285C6004.85 178.386 5992.51 260.411 5992.93 271.594L5993.37 283.461L5981.49 283.522L5739.02 284.784L5727.8 284.843L5727.46 273.63C5727.04 259.443 5725.93 241.409 5719.82 227.816C5716.87 221.26 5713.06 216.461 5708.23 213.488C5703.53 210.592 5696.72 208.723 5686.36 210.032C5678.18 211.075 5672.78 214.185 5669.31 220.049C5665.44 226.58 5662.81 238.418 5665.21 259.301L5665.43 261.1C5667.93 280.532 5676.85 325.667 5721.08 359.171H5721.08C5765.81 393.004 5809.76 419.141 5842.55 436.822C5858.93 445.657 5872.5 452.365 5881.94 456.853C5886.66 459.096 5890.35 460.783 5892.84 461.903C5894.09 462.463 5895.04 462.882 5895.66 463.156C5895.98 463.294 5896.21 463.395 5896.36 463.461C5896.44 463.494 5896.5 463.517 5896.53 463.531C5896.55 463.539 5896.56 463.544 5896.56 463.547C5896.57 463.548 5896.57 463.548 5896.57 463.549L5897.46 463.93L5898.28 464.455C5943.52 493.56 5972.12 525.746 5990.07 568.606C6007.78 610.893 6014.78 662.792 6018.57 730.471L6018.81 734.501C6020.04 754.56 6021.8 773.282 6020.59 793.556C6019.28 815.613 6014.52 839.538 6002.47 870.892L6002.47 870.891C5998.42 881.508 5990.03 893.397 5982.18 903.122C5981.23 904.293 5980.28 905.447 5979.33 906.583H6391.47L6392.23 908.101C6475.9 917.756 6543.5 982.618 6543.5 1077.92V1084.23C6543.5 1182.93 6453.07 1255.77 6356.82 1255.77H1135.84V1628.08C1135.84 1897.31 917.659 2115.5 648.433 2115.5H498.909C229.683 2115.5 11.5002 1897.31 11.5 1628.08V505.042C11.5 235.808 229.682 17.6182 498.909 17.6182H648.433C917.61 17.6183 1135.76 235.727 1135.84 504.893L1145.44 889.759H2537.84C2503.15 841.855 2492.62 773.687 2492.62 715.348V299.362C2492.62 209.679 2517.91 139.37 2570.5 90.126C2622.73 41.0172 2702.9 12.3759 2816.53 11.5205C2976.98 10.2352 3065.7 71.7246 3095.5 105.862L3096.84 107.397C3110.6 123.301 3122.27 140.6 3131.02 163.622C3140.01 187.242 3145.72 216.35 3147.97 255.377L3147.99 255.708V382.577Z" stroke="#A68B81" stroke-width="23" stroke-miterlimit="10"/>
</svg>
