<svg width="8614" height="8607" viewBox="0 0 8614 8607" fill="none" xmlns="http://www.w3.org/2000/svg">
<path d="M2192.89 1110.66C2165.27 1129.14 2137.09 1139.2 2108.19 1140.67C2079.29 1142.31 2051.66 1135.73 2025.32 1121.27C1998.98 1106.82 1976.11 1084.68 1956.17 1055.05L1883.54 946.377C1863.6 916.557 1851.89 886.737 1848.6 856.917C1845.31 827.097 1849.88 799.106 1862.32 772.945C1874.76 746.784 1894.88 724.464 1922.51 705.987C1945.37 690.619 1969.71 681.655 1995.13 678.728C2020.75 675.801 2045.81 678.911 2070.32 688.058C2094.84 697.205 2117.34 712.024 2137.64 732.514L2080.75 770.566C2068.86 760.138 2055.5 752.821 2041.05 748.796C2026.6 744.588 2012.15 743.673 1997.7 745.686C1983.24 747.698 1970.25 752.638 1958.55 760.321C1934.22 776.604 1920.31 798.191 1917.02 825.267C1913.73 852.343 1921.41 879.968 1940.25 908.141L2012.88 1016.81C2031.72 1044.98 2054.22 1062.73 2080.38 1069.87C2106.54 1077 2131.97 1072.43 2156.3 1056.14C2173.5 1044.62 2186.12 1028.34 2194.17 1007.12C2202.22 986.076 2201.86 963.391 2193.44 939.425L2250.33 901.373C2261.49 928.083 2266.62 954.427 2265.52 980.771C2264.42 1007.11 2257.65 1031.45 2245.39 1053.77C2233.14 1076.27 2215.39 1095.11 2192.53 1110.48L2192.89 1110.66Z" fill="#EBD7D1"/>
<path d="M2666.89 380.161L2644.57 320.521L2959.59 202.704L2981.91 262.344L2666.89 380.161ZM2937.82 719.89L2784.52 309.91L2847.08 286.493L3000.38 696.473L2937.82 719.89Z" fill="#EBD7D1"/>
<path d="M3800.01 417.665L3578.84 47.9316L3654.21 38.4184L3836.23 359.305L3800.01 417.847V417.665ZM3956.06 0L3865.5 392.601C3857.45 427.543 3845.2 454.985 3829.28 474.926C3813.18 494.867 3790.13 506.759 3760.31 510.418L3705.43 517.37L3697.2 452.058L3752.08 445.106C3767.27 443.094 3779.16 436.142 3787.75 424.251C3796.35 412.176 3802.94 395.528 3807.51 373.941L3883.98 9.14727L3956.24 0H3956.06Z" fill="#EBD7D1"/>
<path d="M4547.13 565.85L4566.89 404.675L4633.3 412.725L4613.54 573.9L4547.13 565.85ZM4559.21 467.975L4566.89 404.859L4977.22 455.169L4969.54 518.285L4559.21 467.975ZM4561.95 448.399L4567.26 404.859L4570.19 405.224C4597.44 408.517 4620.13 400.102 4637.87 379.795C4655.62 359.488 4666.96 329.302 4671.9 289.237L4706.66 5.8541L4773.06 13.9037L4737.57 303.141C4733.37 337.9 4723.85 366.806 4709.4 389.857C4694.95 412.908 4675.92 429.556 4652.69 439.801C4629.46 450.046 4602.2 453.339 4571.28 449.497L4561.77 448.399H4561.95ZM4740.32 73.9099L4748 10.7937L4962.41 37.1379L4954.72 100.254L4740.32 73.9099ZM4869.29 506.027L4927.28 32.9302L4993.69 41.1627L4935.7 514.26L4869.29 506.21V506.027ZM4920.88 611.77L4940.64 450.595L5007.04 458.644L4987.29 619.819L4920.88 611.77Z" fill="#EBD7D1"/>
<path d="M5879.11 796.179L5817.46 771.847L5954.85 423.153L5959.06 433.947L5602.51 687.143L5551.47 667.019L5725.99 223.742L5787.64 248.074L5648.25 601.891L5644.04 591.097L6003.33 332.961L6053.64 352.719L5879.11 795.996V796.179Z" fill="#EBD7D1"/>
<path d="M6381.83 1068.77L6614.9 962.476L6660.45 1013.34L6446.59 1114.87L6381.83 1068.95V1068.77ZM6608.68 994.492C6586.17 978.576 6569.89 959.732 6559.83 938.145C6549.77 916.557 6546.11 893.689 6549.22 869.54C6552.33 845.391 6562.03 821.609 6578.31 798.191C6594.95 774.774 6613.98 757.76 6635.75 746.967C6657.52 736.173 6680.2 731.965 6703.99 734.343C6727.77 736.722 6751 746.052 6773.5 761.968L6901.38 852.709L6864.61 904.483L6734.72 812.278C6718.8 800.935 6701.97 797.826 6684.05 802.765C6666.12 807.705 6650.2 819.962 6636.48 839.354C6622.76 858.746 6616.54 877.773 6617.82 896.433C6619.1 915.094 6627.7 929.912 6643.43 941.072L6773.32 1033.28L6736.55 1085.23L6608.68 994.492ZM6594.59 1219.7L6870.64 830.756L6925.16 869.54L6649.1 1258.48L6594.59 1219.7Z" fill="#EBD7D1"/>
<path d="M7718.75 2754.06L7870.22 2696.07L7894.19 2758.45L7742.71 2816.45L7718.75 2754.06ZM7810.95 2718.75L7870.41 2696.07L8018.22 3082.08L7958.77 3104.77L7810.95 2718.75ZM7829.43 2711.98L7870.41 2696.25L7871.5 2699C7881.38 2724.79 7899.49 2740.71 7925.65 2746.93C7951.81 2753.15 7983.83 2748.94 8021.7 2734.49L8288.42 2632.4L8312.39 2694.79L8040.17 2799.07C8007.43 2811.51 7977.61 2816.81 7950.35 2814.8C7923.09 2812.79 7899.49 2804.01 7879.55 2788.09C7859.61 2772.36 7844.06 2749.85 7832.9 2720.77L7829.43 2711.8V2711.98ZM7853.39 3105.5L8004.87 3047.51L8028.83 3110.07L7877.18 3168.07L7853.21 3105.68L7853.39 3105.5ZM7922.73 3010.55L8367.82 2840.05L8391.78 2902.43L7946.69 3072.94L7922.73 3010.55ZM8243.79 2694.06L8303.24 2671.37L8380.44 2873.16L8320.99 2895.84L8243.79 2694.06Z" fill="#EBD7D1"/>
<path d="M8139.51 4040.9L8132.01 3975.04L8504.47 3933.15L8496.79 3941.93L8106.21 3745.44L8100.18 3691.11L8573.62 3637.87L8581.12 3703.73L8203.17 3746.18L8210.86 3737.39L8607.1 3934.06L8613.14 3987.85L8139.69 4041.08L8139.51 4040.9Z" fill="#EBD7D1"/>
<path d="M8113.17 4745.06C8118.47 4699.5 8133.66 4663.83 8159.08 4638.22C8184.33 4612.61 8217.26 4599.25 8257.87 4598.15L8250.01 4665.84C8229.7 4667.67 8213.23 4676.45 8200.43 4692.19C8187.62 4707.92 8179.57 4729.14 8176.65 4755.85C8173.54 4782.2 8177.93 4803.23 8189.82 4819.15C8201.71 4835.07 8219.64 4844.4 8243.97 4847.14H8244.33C8269.4 4850.07 8289.34 4846.04 8304.52 4835.07C8319.7 4824.09 8328.49 4806.89 8331.23 4783.66L8339.28 4714.32L8402.39 4721.64L8394.34 4790.98C8391.97 4811.65 8396.17 4828.3 8406.78 4840.92C8417.58 4853.54 8433.68 4861.23 8455.45 4863.79L8458.37 4864.16C8480.14 4866.72 8497.16 4861.96 8509.41 4850.25C8521.85 4838.54 8529.35 4820.61 8532.1 4796.83C8534.66 4774.51 8531.73 4754.94 8523.32 4738.11C8514.72 4721.27 8501.55 4708.83 8483.62 4700.79L8491.49 4633.28C8529.72 4645.54 8557.89 4666.39 8576.19 4695.66C8594.48 4724.75 8601.25 4759.88 8596.49 4801.04C8591 4848.24 8576.37 4883.36 8552.4 4906.6C8528.44 4929.83 8496.42 4939.16 8456.18 4934.59L8453.62 4934.22C8428.55 4931.3 8407.7 4923.25 8390.5 4910.07C8373.49 4896.9 8361.78 4879.52 8355.38 4858.12C8347.33 4880.25 8332.51 4896.54 8311.11 4906.6C8289.7 4916.66 8263.54 4920.14 8232.44 4916.48H8232.08C8188.35 4911.36 8156.16 4893.98 8135.49 4863.97C8114.81 4833.97 8107.31 4794.45 8112.98 4745.24L8113.17 4745.06Z" fill="#EBD7D1"/>
<path d="M7991.51 5391.95L8381.72 5717.23L8362.7 5771.02L7854.67 5776.87L7878.82 5709L8285.5 5713.39L7967.55 5460.01L7991.7 5392.14L7991.51 5391.95ZM8062.86 5503.18L8122.86 5524.59L8038.71 5760.95L7978.71 5739.55L8062.86 5503.18Z" fill="#EBD7D1"/>
<path d="M7416.72 6553.11L7453.12 6497.86L7765.95 6704.04L7754.42 6705.87L7580.26 6304.85L7610.45 6259.11L8008.16 6521.28L7971.76 6576.52L7654.17 6367.24L7665.51 6365.41L7844.06 6770.08L7814.24 6815.27L7416.53 6553.11H7416.72ZM7992.61 6787.46L7963.34 6833.01C7936.81 6815.63 7921.63 6794.05 7917.42 6768.62C7913.21 6743.19 7920.71 6715.93 7939.92 6686.84L7941.39 6684.65C7960.41 6655.56 7982.55 6637.99 8007.61 6631.77C8032.67 6625.55 8058.47 6631.04 8084.81 6648.61L8054.44 6693.43C8040.72 6684.46 8027.37 6681.54 8014.56 6684.65C8001.57 6687.76 7990.41 6696.54 7980.9 6710.99L7979.44 6713.19C7969.74 6727.82 7966.08 6741.54 7968.46 6754.53C7970.66 6767.52 7978.71 6778.5 7992.43 6787.64L7992.61 6787.46Z" fill="#EBD7D1"/>
<path d="M6800.03 7215.74L7119.08 7569.92L7069.32 7614.74L6750.27 7260.56L6800.03 7215.74ZM7106.27 7212.99L7148.89 7260.19L6952.42 7437.28L6909.79 7390.08L7106.27 7212.99ZM7001.26 7034.44L7320.31 7388.62L7270.55 7433.44L6951.5 7079.26L7001.26 7034.44Z" fill="#EBD7D1"/>
<path d="M6308.29 7577.6L6380 8080.52L6329.88 8107.6L5948.81 7771.53L6012.29 7737.31L6311.22 8013.01L6244.81 7611.81L6308.29 7577.6ZM6286.52 7708.04L6316.7 7764.03L6095.9 7883.12L6065.71 7827.14L6286.52 7708.04Z" fill="#EBD7D1"/>
<path d="M3780.62 8099.91L3846.48 8105.95L3812.27 8479.16L3805.13 8470.01L4076.62 8127.17L4131.13 8132.11L4087.59 8606.49L4021.55 8600.45L4056.31 8221.75L4063.44 8230.9L3790.68 8579.23L3736.9 8574.29L3780.44 8099.91H3780.62Z" fill="#EBD7D1"/>
<path d="M2940.75 7881.11L2782.32 8330.79L2719.21 8308.65L2877.63 7858.97L2940.75 7881.11ZM3089.48 8148.76L3068.25 8208.77L2818.73 8120.77L2839.95 8060.76L3089.48 8148.76ZM3196.13 7971.12L3037.7 8420.8L2974.59 8398.48L3133.02 7948.8L3196.13 7970.94V7971.12Z" fill="#EBD7D1"/>
<path d="M2144.23 7954.84L2109.65 8008.26L1827.56 7825.13L1862.14 7771.71L2144.23 7954.84ZM2256 7534.98L2017.82 7902.15L1961.66 7865.74L2199.84 7498.57L2256 7534.98Z" fill="#EBD7D1"/>
<path d="M1326.86 7321.11L1280.94 7365.2L1091.23 7167.8L1137.15 7123.72L1326.86 7321.11ZM1647 7058.22L1303.44 7388.8L1257.16 7340.69L1600.72 7010.11L1647 7058.22ZM1476.87 7176.77L1431.13 7220.86L1266.3 7049.62L1312.04 7005.53L1476.87 7176.77ZM1624.5 7034.8L1578.76 7078.89L1388.87 6881.68L1434.79 6837.59L1624.5 7034.8Z" fill="#EBD7D1"/>
<path d="M909.756 6441.15L855.057 6473.53L777.491 6342.35C766.332 6323.51 750.965 6312.35 731.207 6308.51C711.45 6304.85 691.144 6309.24 670.106 6321.68C648.702 6334.3 634.798 6350.22 628.578 6369.25C622.358 6388.27 624.737 6407.3 635.896 6426.14L713.462 6557.32L658.763 6589.7L582.295 6460.54C567.66 6435.66 559.976 6410.96 559.61 6386.44C559.245 6361.93 565.282 6338.88 578.087 6317.47C590.893 6296.07 609.919 6277.96 635.347 6262.77C660.593 6247.95 685.655 6239.9 710.535 6239.17C735.415 6238.44 758.465 6243.93 779.686 6256.37C800.907 6268.63 818.835 6287.29 833.653 6312.17L910.122 6441.33L909.756 6441.15ZM1086.48 6376.75L676.143 6619.52L642.116 6561.89L1052.45 6319.3L1086.48 6376.93V6376.75Z" fill="#EBD7D1"/>
<path d="M682.546 5545.81L225.747 5682.29L206.538 5618.26L663.337 5481.78L682.546 5545.81ZM672.85 5512.88L611.931 5531.17L568.758 5386.65C562.172 5364.69 550.464 5349.51 533.816 5341.28C517.169 5333.04 496.68 5332.5 472.532 5339.81C448.201 5347.13 431.37 5358.84 421.675 5374.76C412.162 5390.86 410.698 5409.88 417.101 5431.84L460.275 5576.36L399.356 5594.66L356.914 5452.33C348.133 5423.24 346.304 5396.89 350.877 5373.11C355.633 5349.51 366.427 5329.2 383.623 5312.37C400.636 5295.54 423.87 5282.73 452.957 5274.14C481.861 5265.54 508.022 5263.53 531.621 5268.28C555.22 5273.04 575.343 5284.02 592.174 5301.21C609.004 5318.41 621.627 5341.64 630.408 5370.73L672.85 5513.06V5512.88Z" fill="#EBD7D1"/>
<path d="M80.3103 4672.43L16.8304 4676.27L0 4402.95L63.4799 4399.11L80.3103 4672.43ZM494.667 4679.56L18.8427 4708.83L14.8181 4642.06L490.643 4612.79L494.667 4679.56ZM288.129 4659.8L224.649 4663.65L210.014 4426.37L273.494 4422.52L288.129 4659.8ZM492.655 4647.18L429.175 4651.02L412.345 4377.7L475.825 4373.86L492.655 4647.18Z" fill="#EBD7D1"/>
<path d="M512.413 3766.3L43.1738 3682.14L55.0648 3616.28L524.304 3700.44L512.596 3766.3H512.413ZM336.608 3699.71L274.043 3688.55L300.935 3538.53C304.777 3516.94 300.386 3498.47 287.946 3482.73C275.507 3467 257.213 3457.12 233.065 3452.73C208.551 3448.34 187.696 3451.27 170.5 3461.7C153.303 3472.12 142.876 3488.04 139.034 3509.44L112.142 3659.46L49.5767 3648.3L76.1029 3500.48C81.2251 3472.12 91.6527 3448.34 107.385 3429.5C123.118 3410.47 142.693 3397.12 166.475 3389.25C190.074 3381.38 216.417 3380.1 245.505 3385.22C274.409 3390.35 298.374 3400.77 317.948 3416.32C337.34 3431.87 351.06 3451.27 359.11 3474.5C367.159 3497.74 368.622 3523.53 363.5 3551.89L336.974 3699.71H336.608Z" fill="#EBD7D1"/>
<path d="M732.489 2909.57L370.452 2553.19L393.868 2501.23L900.61 2537.27L870.973 2602.95L466.129 2565.08L762.308 2843.89L732.672 2909.57H732.489ZM670.655 2792.66L612.663 2766.5L715.841 2537.82L773.833 2563.98L670.655 2792.48V2792.66Z" fill="#EBD7D1"/>
</svg>
