<svg width="9160" height="9161" viewBox="0 0 9160 9161" fill="none" xmlns="http://www.w3.org/2000/svg">
<g clip-path="url(#clip0_2001_137)">
<path d="M4579.88 9160.08C7109.28 9160.08 9159.76 7109.53 9159.76 4580.04C9159.76 2050.55 7109.28 0 4579.88 0C2050.48 0 0 2050.55 0 4580.04C0 7109.53 2050.48 9160.08 4579.88 9160.08Z" fill="#A5897F"/>
<path d="M4579.88 8238.04C6600.07 8238.04 8237.75 6600.3 8237.75 4580.04C8237.75 2559.79 6600.07 922.046 4579.88 922.046C2559.7 922.046 922.014 2559.79 922.014 4580.04C922.014 6600.3 2559.7 8238.04 4579.88 8238.04Z" fill="#DBC4B9"/>
<path d="M2461.63 1391.48C2434.01 1409.96 2405.83 1420.02 2376.93 1421.49C2348.02 1423.13 2320.4 1416.55 2294.06 1402.09C2267.71 1387.64 2244.85 1365.51 2224.91 1335.87L2152.28 1227.2C2132.34 1197.38 2120.63 1167.56 2117.34 1137.74C2114.05 1107.92 2118.62 1079.93 2131.06 1053.77C2143.5 1027.61 2163.62 1005.29 2191.25 986.808C2214.11 971.441 2238.44 962.476 2263.87 959.549C2289.48 956.622 2314.55 959.732 2339.06 968.88C2363.57 978.027 2386.08 992.845 2406.38 1013.34L2349.49 1051.39C2337.6 1040.96 2324.24 1033.64 2309.79 1029.62C2295.34 1025.41 2280.89 1024.49 2266.43 1026.51C2251.98 1028.52 2238.99 1033.46 2227.28 1041.14C2202.95 1057.43 2189.05 1079.01 2185.76 1106.09C2182.46 1133.16 2190.15 1160.79 2208.99 1188.96L2281.62 1297.63C2300.46 1325.81 2322.96 1343.55 2349.12 1350.69C2375.28 1357.82 2400.71 1353.25 2425.04 1336.97C2442.24 1325.44 2454.86 1309.16 2462.91 1287.94C2470.96 1266.9 2470.59 1244.21 2462.18 1220.25L2519.07 1182.19C2530.23 1208.9 2535.35 1235.25 2534.26 1261.59C2533.16 1287.94 2526.39 1312.27 2514.13 1334.59C2501.88 1357.09 2484.13 1375.93 2461.26 1391.3L2461.63 1391.48Z" fill="#EBD7D1"/>
<path d="M2935.62 660.982L2913.31 601.342L3228.33 483.525L3250.65 543.165L2935.62 660.982ZM3206.56 1000.71L3053.25 590.731L3115.82 567.314L3269.12 977.295L3206.56 1000.71Z" fill="#EBD7D1"/>
<path d="M4068.75 698.486L3847.58 328.753L3922.95 319.24L4104.97 640.126L4068.75 698.669V698.486ZM4224.8 280.821L4134.24 673.422C4126.19 708.365 4113.94 735.807 4098.02 755.748C4081.92 775.689 4058.87 787.58 4029.05 791.239L3974.17 798.191L3965.94 732.88L4020.82 725.928C4036 723.915 4047.89 716.964 4056.49 705.072C4065.09 692.998 4071.68 676.35 4076.25 654.762L4152.72 289.969L4224.98 280.821H4224.8Z" fill="#EBD7D1"/>
<path d="M4815.87 846.672L4835.63 685.497L4902.04 693.547L4882.28 854.721L4815.87 846.672ZM4827.95 748.796L4835.63 685.68L5245.96 735.99L5238.28 799.106L4827.95 748.796ZM4830.69 729.221L4836 685.68L4838.92 686.046C4866.18 689.339 4888.87 680.923 4906.61 660.616C4924.36 640.309 4935.7 610.123 4940.64 570.058L4975.4 286.676L5041.8 294.725L5006.31 583.962C5002.11 618.722 4992.59 647.627 4978.14 670.678C4963.69 693.729 4944.66 710.377 4921.43 720.622C4898.2 730.867 4870.94 734.16 4840.02 730.318L4830.51 729.221H4830.69ZM5009.06 354.731L5016.74 291.615L5231.15 317.959L5223.46 381.076L5009.06 354.731ZM5138.03 786.849L5196.02 313.752L5262.43 321.984L5204.44 795.081L5138.03 787.032V786.849ZM5189.62 892.591L5209.38 731.416L5275.78 739.466L5256.02 900.641L5189.62 892.591Z" fill="#EBD7D1"/>
<path d="M6147.85 1077L6086.2 1052.67L6223.59 703.975L6227.8 714.768L5871.25 967.965L5820.21 947.841L5994.73 504.564L6056.38 528.896L5916.98 882.712L5912.78 871.918L6272.07 613.782L6322.38 633.54L6147.85 1076.82V1077Z" fill="#EBD7D1"/>
<path d="M6650.57 1349.59L6883.63 1243.3L6929.19 1294.16L6715.33 1395.69L6650.57 1349.77V1349.59ZM6877.41 1275.31C6854.91 1259.4 6838.63 1240.55 6828.57 1218.97C6818.51 1197.38 6814.85 1174.51 6817.96 1150.36C6821.07 1126.21 6830.76 1102.43 6847.05 1079.01C6863.69 1055.6 6882.72 1038.58 6904.49 1027.79C6926.26 1016.99 6948.94 1012.79 6972.72 1015.16C6996.51 1017.54 7019.74 1026.87 7042.24 1042.79L7170.12 1133.53L7133.35 1185.3L7003.46 1093.1C6987.54 1081.76 6970.71 1078.65 6952.78 1083.59C6934.86 1088.53 6918.94 1100.78 6905.22 1120.18C6891.5 1139.57 6885.28 1158.59 6886.56 1177.25C6887.84 1195.92 6896.44 1210.73 6912.17 1221.89L7042.06 1314.1L7005.29 1366.05L6877.41 1275.31ZM6863.33 1500.52L7139.38 1111.58L7193.9 1150.36L6917.84 1539.3L6863.33 1500.52Z" fill="#EBD7D1"/>
<path d="M7987.49 3034.88L8138.96 2976.89L8162.93 3039.27L8011.45 3097.27L7987.49 3034.88ZM8079.69 2999.57L8139.14 2976.89L8286.96 3362.9L8227.5 3385.59L8079.69 2999.57ZM8098.17 2992.81L8139.14 2977.07L8140.24 2979.82C8150.12 3005.61 8168.23 3021.53 8194.39 3027.75C8220.55 3033.97 8252.57 3029.76 8290.44 3015.31L8557.16 2913.22L8581.13 2975.61L8308.91 3079.89C8276.17 3092.33 8246.35 3097.63 8219.09 3095.62C8191.83 3093.61 8168.23 3084.83 8148.29 3068.91C8128.35 3053.18 8112.8 3030.68 8101.64 3001.59L8098.17 2992.62V2992.81ZM8122.13 3386.32L8273.61 3328.33L8297.57 3390.9L8145.91 3448.89L8121.95 3386.5L8122.13 3386.32ZM8191.47 3291.37L8636.56 3120.87L8660.52 3183.25L8215.43 3353.76L8191.47 3291.37ZM8512.52 2974.88L8571.98 2952.19L8649.18 3153.98L8589.72 3176.67L8512.52 2974.88Z" fill="#EBD7D1"/>
<path d="M8408.25 4321.72L8400.75 4255.86L8773.21 4213.97L8765.53 4222.75L8374.95 4026.27L8368.92 3971.93L8842.36 3918.69L8849.86 3984.55L8471.91 4027L8479.59 4018.22L8875.84 4214.88L8881.88 4268.67L8408.43 4321.9L8408.25 4321.72Z" fill="#EBD7D1"/>
<path d="M8381.91 5025.88C8387.21 4980.33 8402.39 4944.65 8427.82 4919.04C8453.07 4893.43 8486 4880.07 8526.61 4878.97L8518.74 4946.66C8498.44 4948.49 8481.97 4957.27 8469.17 4973.01C8456.36 4988.74 8448.31 5009.96 8445.38 5036.67C8442.27 5063.02 8446.67 5084.06 8458.56 5099.97C8470.45 5115.89 8488.38 5125.22 8512.71 5127.96H8513.07C8538.14 5130.89 8558.08 5126.87 8573.26 5115.89C8588.44 5104.91 8597.22 5087.71 8599.97 5064.48L8608.02 4995.14L8671.13 5002.46L8663.08 5071.8C8660.7 5092.47 8664.91 5109.12 8675.52 5121.74C8686.32 5134.37 8702.41 5142.05 8724.18 5144.61L8727.11 5144.98C8748.88 5147.54 8765.89 5142.78 8778.15 5131.07C8790.59 5119.36 8798.09 5101.44 8800.84 5077.65C8803.4 5055.33 8800.47 5035.76 8792.05 5018.93C8783.46 5002.1 8770.29 4989.66 8752.36 4981.61L8760.22 4914.1C8798.46 4926.36 8826.63 4947.21 8844.92 4976.48C8863.22 5005.57 8869.99 5040.7 8865.23 5081.86C8859.74 5129.06 8845.11 5164.19 8821.14 5187.42C8797.18 5210.65 8765.16 5219.98 8724.92 5215.41L8722.36 5215.04C8697.29 5212.12 8676.44 5204.07 8659.24 5190.9C8642.23 5177.72 8630.52 5160.34 8624.12 5138.94C8616.07 5161.08 8601.25 5177.36 8579.85 5187.42C8558.44 5197.48 8532.28 5200.96 8501.18 5197.3H8500.82C8457.09 5192.18 8424.9 5174.8 8404.22 5144.79C8383.55 5114.79 8376.05 5075.27 8381.72 5026.06L8381.91 5025.88Z" fill="#EBD7D1"/>
<path d="M8260.25 5672.77L8650.46 5998.05L8631.43 6051.84L8123.41 6057.69L8147.56 5989.82L8554.23 5994.21L8236.29 5740.83L8260.43 5672.96L8260.25 5672.77ZM8331.6 5784.01L8391.6 5805.41L8307.45 6041.78L8247.44 6020.37L8331.6 5784.01Z" fill="#EBD7D1"/>
<path d="M7685.46 6833.93L7721.86 6778.68L8034.69 6984.86L8023.16 6986.69L7849 6585.67L7879.19 6539.94L8276.9 6802.1L8240.49 6857.35L7922.91 6648.06L7934.25 6646.23L8112.8 7050.9L8082.98 7096.09L7685.27 6833.93H7685.46ZM8261.35 7068.28L8232.08 7113.84C8205.55 7096.46 8190.37 7074.87 8186.16 7049.44C8181.95 7024.01 8189.45 6996.75 8208.66 6967.66L8210.13 6965.47C8229.15 6936.38 8251.29 6918.82 8276.35 6912.6C8301.41 6906.38 8327.21 6911.86 8353.55 6929.43L8323.18 6974.25C8309.46 6965.28 8296.11 6962.36 8283.3 6965.47C8270.31 6968.58 8259.15 6977.36 8249.64 6991.81L8248.18 6994.01C8238.48 7008.64 8234.82 7022.36 8237.2 7035.35C8239.4 7048.34 8247.44 7059.32 8261.16 7068.47L8261.35 7068.28Z" fill="#EBD7D1"/>
<path d="M7068.77 7496.56L7387.81 7850.74L7338.05 7895.56L7019.01 7541.38L7068.77 7496.56ZM7375.01 7493.81L7417.63 7541.01L7221.16 7718.1L7178.53 7670.91L7375.01 7493.81ZM7270 7315.26L7589.05 7669.44L7539.29 7714.26L7220.24 7360.08L7270 7315.26Z" fill="#EBD7D1"/>
<path d="M6577.03 7858.43L6648.74 8361.34L6598.61 8388.42L6217.55 8052.35L6281.03 8018.14L6579.95 8293.84L6513.55 7892.64L6577.03 7858.43ZM6555.26 7988.87L6585.44 8044.85L6364.64 8163.94L6334.45 8107.96L6555.26 7988.87Z" fill="#EBD7D1"/>
<path d="M4049.36 8380.73L4115.22 8386.77L4081.01 8759.98L4073.87 8750.83L4345.35 8407.99L4399.87 8412.93L4356.33 8887.31L4290.29 8881.27L4325.05 8502.58L4332.18 8511.72L4059.42 8860.05L4005.64 8855.11L4049.17 8380.73H4049.36Z" fill="#EBD7D1"/>
<path d="M3209.48 8161.93L3051.06 8611.61L2987.95 8589.47L3146.37 8139.8L3209.48 8161.93ZM3358.21 8429.58L3336.99 8489.59L3087.46 8401.59L3108.68 8341.58L3358.21 8429.58ZM3464.87 8251.94L3306.44 8701.62L3243.33 8679.3L3401.75 8229.62L3464.87 8251.76V8251.94Z" fill="#EBD7D1"/>
<path d="M2412.97 8235.66L2378.39 8289.08L2096.3 8105.95L2130.88 8052.53L2412.97 8235.66ZM2524.74 7815.8L2286.56 8182.97L2230.39 8146.56L2468.58 7779.39L2524.74 7815.8Z" fill="#EBD7D1"/>
<path d="M1595.6 7601.93L1549.68 7646.03L1359.97 7448.63L1405.89 7404.54L1595.6 7601.93ZM1915.74 7339.04L1572.18 7669.62L1525.9 7621.51L1869.46 7290.93L1915.74 7339.04ZM1745.61 7457.59L1699.87 7501.68L1535.04 7330.44L1580.78 7286.35L1745.61 7457.59ZM1893.24 7315.62L1847.5 7359.72L1657.61 7162.5L1703.53 7118.41L1893.24 7315.62Z" fill="#EBD7D1"/>
<path d="M1178.49 6721.97L1123.8 6754.35L1046.23 6623.18C1035.07 6604.33 1019.7 6593.17 999.946 6589.33C980.188 6585.67 959.882 6590.06 938.844 6602.5C917.44 6615.13 903.537 6631.04 897.317 6650.07C891.097 6669.1 893.475 6688.12 904.634 6706.97L982.201 6838.14L927.502 6870.52L851.033 6741.36C836.398 6716.48 828.715 6691.78 828.349 6667.27C827.983 6642.75 834.02 6619.7 846.826 6598.3C859.631 6576.89 878.657 6558.78 904.085 6543.6C929.331 6528.78 954.394 6520.73 979.273 6519.99C1004.15 6519.26 1027.2 6524.75 1048.42 6537.19C1069.65 6549.45 1087.57 6568.11 1102.39 6592.99L1178.86 6722.15L1178.49 6721.97ZM1355.21 6657.57L944.881 6900.34L910.854 6842.71L1321.19 6600.12L1355.21 6657.75V6657.57Z" fill="#EBD7D1"/>
<path d="M951.284 5826.63L494.485 5963.11L475.276 5899.08L932.075 5762.6L951.284 5826.63ZM941.588 5793.7L880.669 5812L837.496 5667.47C830.91 5645.52 819.202 5630.33 802.554 5622.1C785.907 5613.87 765.418 5613.32 741.27 5620.64C716.939 5627.95 700.109 5639.66 690.413 5655.58C680.9 5671.68 679.436 5690.7 685.839 5712.66L729.013 5857.18L668.094 5875.48L625.652 5733.15C616.871 5704.06 615.042 5677.71 619.615 5653.93C624.372 5630.33 635.165 5610.02 652.361 5593.19C669.375 5576.36 692.608 5563.56 721.695 5554.96C750.6 5546.36 776.76 5544.35 800.359 5549.1C823.958 5553.86 844.082 5564.84 860.912 5582.03C877.742 5599.23 890.365 5622.46 899.146 5651.55L941.588 5793.88V5793.7Z" fill="#EBD7D1"/>
<path d="M349.049 4953.25L285.569 4957.09L268.738 4683.77L332.218 4679.93L349.049 4953.25ZM763.406 4960.38L287.581 4989.66L283.556 4922.88L759.381 4893.61L763.406 4960.38ZM556.867 4940.63L493.388 4944.47L478.752 4707.19L542.232 4703.35L556.867 4940.63ZM761.393 4928L697.913 4931.85L681.083 4658.52L744.563 4654.68L761.393 4928Z" fill="#EBD7D1"/>
<path d="M781.151 4047.12L311.912 3962.97L323.803 3897.11L793.042 3981.26L781.334 4047.12H781.151ZM605.346 3980.53L542.781 3969.37L569.673 3819.35C573.515 3797.77 569.125 3779.29 556.685 3763.56C544.245 3747.82 525.951 3737.94 501.803 3733.55C477.289 3729.16 456.434 3732.09 439.238 3742.52C422.042 3752.94 411.614 3768.86 407.772 3790.27L380.88 3940.28L318.315 3929.12L344.841 3781.3C349.963 3752.94 360.391 3729.16 376.124 3710.32C391.856 3691.29 411.431 3677.94 435.213 3670.07C458.812 3662.2 485.155 3660.92 514.243 3666.05C543.147 3671.17 567.112 3681.6 586.687 3697.15C606.078 3712.7 619.799 3732.09 627.848 3755.32C635.897 3778.56 637.361 3804.35 632.238 3832.71L605.712 3980.53H605.346Z" fill="#EBD7D1"/>
<path d="M1001.23 3190.39L639.19 2834.01L662.607 2782.05L1169.35 2818.09L1139.71 2883.77L734.868 2845.9L1031.05 3124.71L1001.41 3190.39H1001.23ZM939.393 3073.48L881.402 3047.32L984.579 2818.64L1042.57 2844.8L939.393 3073.3V3073.48Z" fill="#EBD7D1"/>
<path opacity="0.47" d="M7117.8 4462.04H6765.46C6772.96 4455.09 6791.8 4434.42 6797.29 4420.15C6816.31 4370.57 6811.74 4345.87 6809.73 4309.46C6803.51 4199.15 6787.04 4145.36 6715.88 4099.44C6715.88 4099.44 6644.72 4069.07 6570.44 4012.91C6530.01 3982.36 6523.06 3940.83 6521.23 3924.91C6517.21 3889.06 6529.1 3876.43 6546.66 3874.24C6587.45 3869.11 6590.02 3912.29 6590.75 3935.34L6788.69 3934.24C6787.96 3911.19 6827.65 3684.71 6443.48 3753.31C6418.97 3757.7 6356.4 3794.11 6339.21 3827.04C6316.16 3870.94 6313.78 3919.24 6313.78 3956.75C6313.78 4003.4 6330.43 4048.22 6354.57 4079.87C6378.72 4111.52 6405.98 4130.36 6441.1 4155.24C6441.1 4155.24 6566.97 4223.48 6583.61 4246.9C6604.1 4275.62 6605.75 4280.19 6606.66 4312.03C6607.94 4362.7 6595.14 4380.45 6549.4 4374.04C6514.1 4362.52 6524.52 4320.62 6520.87 4284.95L6325.12 4283.67C6326.04 4336.91 6323.11 4403.13 6346.71 4433.87C6354.39 4443.75 6362.99 4452.53 6372.5 4460.58H6259.99L6263.84 3740.32H6032.6L6028.94 4458.02H5880.4L5978.82 3740.32H5736.42L5701.11 4276.17L5648.25 3740.32H5401.09L5539.95 4464.6H5462.01L5358.47 3740.32H5026.62L4934.97 4464.42H4876.43V4356.3L4753.12 4355.2L4754.4 3740.32H4525.91L4524.82 4455.46H4414.32C4457.68 4425.82 4470.3 4365.26 4470.3 4302.51L4465.73 4237.2L4243.64 4234.46L4248.21 4293C4248.21 4309.46 4244.55 4322.82 4237.24 4333.25C4229.92 4343.49 4217.11 4348.8 4199.18 4348.8C4183.27 4348.8 4186.2 4349.16 4177.6 4340.93C4169 4332.52 4164.79 4318.25 4164.79 4297.76V3962.6C4164.79 3946.14 4168.09 3932.96 4175.04 3923.08C4181.81 3913.2 4187.84 3903.87 4207.42 3903.87C4224.25 3903.87 4236.5 3907.72 4244.55 3915.4C4252.6 3923.08 4256.45 3937.9 4256.45 3960.04V4014.56H4465.54V3920.52C4461.89 3857.96 4447.43 3829.6 4425.11 3803.99C4402.8 3778.56 4333.1 3729.16 4204.49 3730.08C4113.2 3730.81 4050.27 3753.86 4009.84 3791.73C3969.41 3829.6 3949.11 3884.3 3949.11 3955.65V4295.38C3949.11 4349.35 3960.45 4411.18 3997.04 4447.22H2830.43L2822.38 4123.59C2822.38 3908.81 2648.41 3734.83 2433.64 3734.83H2311.44C2096.67 3734.83 1922.69 3908.81 1922.69 4123.59V5040.7C1922.69 5255.48 2096.67 5429.46 2311.44 5429.46H2433.64C2648.41 5429.46 2822.38 5255.48 2822.38 5040.7V4727.13H7095.66C7170.12 4727.13 7238.72 4670.97 7238.72 4596.32V4591.2C7238.72 4516.74 7184.93 4466.62 7118.53 4461.49L7117.8 4462.04ZM2635.79 4815.49C2635.79 4961.67 2517.24 5080.21 2371.07 5080.21C2224.91 5080.21 2106.36 4961.67 2106.36 4815.49C2106.36 4724.39 2152.46 4644.07 2222.53 4596.51C2152.46 4548.94 2106.36 4468.63 2106.36 4377.52C2106.36 4231.35 2224.91 4112.8 2371.07 4112.8C2517.24 4112.8 2635.79 4231.35 2635.79 4377.52C2635.79 4468.63 2589.69 4548.94 2519.62 4596.51C2589.69 4644.07 2635.79 4724.39 2635.79 4815.49ZM5195.84 3931.13H5204.8L5252 4236.29H5156.51L5195.84 3931.13ZM5143.7 4347.52L5264.99 4354.47L5262.61 4466.98L5133.64 4457.65L5143.7 4347.7V4347.52Z" stroke="#68544D" stroke-width="37" stroke-miterlimit="10"/>
</g>
<defs>
<clipPath id="clip0_2001_137">
<rect width="9160" height="9161" fill="white"/>
</clipPath>
</defs>
</svg>
